<?xml version="1.0" encoding="UTF-8"?>
<svg id="Layer_1_copy_2" data-name="Layer 1 copy 2" xmlns="http://www.w3.org/2000/svg" viewBox="0 0 200 200">
  <path fill="currentColor" stroke="currentColor" stroke-width="3" d="M191.58,150.57c-2.05-.1-3.88-.68-5.49-1.76-1.61-1.07-2.85-2.88-3.73-5.42-.88-2.54-1.32-5.81-1.32-9.81v-66.76c0-4,.44-7.27,1.32-9.81.88-2.54,2.12-4.34,3.73-5.42,1.61-1.07,3.44-1.66,5.49-1.76.49,0,.78-.1.88-.29.1-.19.05-.39-.15-.59-.2-.19-.44-.29-.73-.29-1.95,0-3.86.05-5.71.15-.98.1-2.05.15-3.22.15h-25.48c-1.27,0-2.39-.05-3.37-.15-1.86-.1-3.76-.15-5.71-.15-.29,0-.54.1-.73.29-.2.2-.25.39-.15.59.1.2.39.29.88.29,2.15.1,4,.68,5.56,1.76,1.56,1.08,2.8,2.88,3.73,5.42.93,2.54,1.39,5.81,1.39,9.81v23.13c0,.88-.17,1.64-.51,2.27-.34.64-1.05,1.2-2.12,1.68-6.44,2.93-13.15,5.32-20.13,7.17-6.98,1.86-13.79,2.98-20.42,3.37-.68.1-1.17-.07-1.46-.51-.19-.28-.33-.66-.44-1.13v-35.99c0-4,.44-7.27,1.32-9.81.88-2.54,2.12-4.34,3.73-5.42,1.61-1.07,3.49-1.66,5.64-1.76.39,0,.66-.1.81-.29.15-.19.12-.39-.07-.59-.2-.19-.49-.29-.88-.29-1.95,0-3.86.05-5.71.15-.98.1-2.05.15-3.22.15h-25.33c-1.27,0-2.39-.05-3.37-.15-1.86-.1-3.76-.15-5.71-.15-.29,0-2.7.14-2.9.33,0,0,0,0,0,.01-.06.01-.12,0-.17.02-.2.05-.34.1-.44.15-.1.05-.15.12-.15.22s.02.2.07.29c.05.1.07.2.07.29,0,.2.02.32.07.37.05.05.07.17.07.37l.23,3.64c-.06.33-.15.67-.3,1.05-.24.59-.66,1.27-1.24,2.05L15.16,143.39l-.15.15c-2.15,3.12-3.78,5.15-4.9,6.08-1.12.93-2.9,1.44-5.34,1.54-.19,0-.32.07-.37.22-.05.15-.05.27,0,.37.05.1.12.15.22.15.78-.1,1.56-.2,2.34-.29l2.64-.15h11.13l3.81.15c1.17.1,2.34.19,3.51.29.19,0,.34-.07.44-.22.1-.15.1-.27,0-.37-.1-.1-.29-.15-.59-.15-3.03-.1-5.64-.37-7.83-.8-2.2-.44-3.71-1.19-4.54-2.27-.83-1.07-.56-2.54.81-4.39l10.81-15.34c.53-.53,1.14-.98,1.85-1.35,1.12-.59,2.32-.93,3.59-1.03,4.2-.19,8.52-.68,12.96-1.46,4.44-.78,8.91-1.85,13.4-3.22,6.54-1.85,12.74-4.2,18.59-7.03,1.37-.68,2.32-.97,2.85-.88.45.08.81.42,1.08.97l1.77,28.6c.1,2.25-.37,3.95-1.39,5.12-1.02,1.17-2.47,1.95-4.32,2.34-1.85.39-4.34.64-7.47.73-.29,0-.49.05-.59.15s-.1.22,0,.37c.1.15.24.22.44.22,1.17-.1,2.34-.2,3.51-.29l3.81-.15h38.07c1.17,0,2.24.05,3.22.15,1.85.1,3.76.15,5.71.15.39,0,.68-.1.88-.29.19-.19.22-.39.07-.59-.15-.19-.42-.29-.81-.29-2.15-.1-4.03-.68-5.64-1.76-1.61-1.07-2.86-2.88-3.73-5.42-.88-2.54-1.32-5.81-1.32-9.81v-25.28c.11-.54.24-1.06.44-1.51.29-.68.83-1.07,1.61-1.17,6.64-.49,13.45-1.61,20.42-3.37,6.98-1.76,13.74-4.2,20.28-7.32.88-.39,1.49-.39,1.83,0,.34.39.51,1.02.51,1.9v36.75c0,4-.46,7.27-1.39,9.81-.93,2.54-2.17,4.34-3.73,5.42-1.56,1.08-3.42,1.66-5.56,1.76-.49,0-.78.1-.88.29-.1.2-.05.39.15.59.19.19.44.29.73.29,1.95,0,3.85-.05,5.71-.15.97-.1,2.1-.15,3.37-.15h25.48c1.17,0,2.24.05,3.22.15,1.85.1,3.76.15,5.71.15.29,0,.54-.1.73-.29.19-.19.24-.39.15-.59-.1-.19-.39-.29-.88-.29ZM80.31,110.96c-.68,1.02-1.56,1.83-2.64,2.42-6.83,3.42-14.11,6.13-21.81,8.12-7.71,2-15.37,3.25-22.99,3.73-.98.1-1.56-.27-1.76-1.1-.12-.51-.1-1,.04-1.49l46.72-66.29,3.27,52.77c-.11.54-.37,1.14-.83,1.84ZM91.59,133.58c0,4-.46,7.27-1.39,9.81-.63,1.72-1.41,3.09-2.32,4.14-.55-1.14-.89-2.64-.97-4.58l-6-92.97c0-.06,0-.1,0-.15,0,0,0,0,0,0,2.15.1,4,.68,5.56,1.76,1.56,1.08,2.8,2.88,3.73,5.42.93,2.54,1.39,5.81,1.39,9.81v66.76Z"/>
</svg>